<svg width="16" height="16" viewBox="0 0 16 16" fill="none" xmlns="http://www.w3.org/2000/svg">
<path d="M2.94453 10.3726C3.67878 10.3686 4.38498 10.1042 4.92468 9.63107L10.1771 12.4855C10.1102 12.7058 10.0763 12.9339 10.0764 13.1632C10.071 13.8102 10.3004 14.4393 10.726 14.9444C11.1516 15.4496 11.7473 15.8 12.4129 15.9366C13.0785 16.0732 13.7733 15.9877 14.3803 15.6944C14.9873 15.4012 15.4695 14.9182 15.7456 14.3267C16.0217 13.7352 16.0749 13.0714 15.8962 12.447C15.7175 11.8226 15.3179 11.2757 14.7646 10.8985C14.2113 10.5214 13.5382 10.3369 12.8585 10.3761C12.1788 10.4154 11.5341 10.676 11.0329 11.1141L5.78051 8.25969C5.8439 8.06321 5.87779 7.85921 5.88119 7.65373L11.0413 4.84717C11.5398 5.2752 12.1779 5.52735 12.8488 5.56133C13.5197 5.59531 14.1824 5.40905 14.7259 5.03379C15.2694 4.65852 15.6606 4.11709 15.8339 3.50028C16.0071 2.88348 15.9519 2.22881 15.6775 1.64609C15.4031 1.06336 14.9262 0.588021 14.3268 0.29978C13.7273 0.0115379 13.0418 -0.0720713 12.3852 0.0629745C11.7286 0.19802 11.1408 0.543507 10.7205 1.04149C10.3001 1.53948 10.0727 2.15968 10.0764 2.79807C10.0793 3.02714 10.1131 3.25492 10.1771 3.47579L5.40294 6.06707C5.12631 5.6604 4.74309 5.32913 4.29094 5.10583C3.83878 4.88252 3.33326 4.77486 2.82407 4.79342C2.31487 4.81199 1.81952 4.95614 1.3867 5.21172C0.953886 5.46729 0.598502 5.82549 0.35548 6.2511C0.112459 6.67672 -0.00983519 7.1551 0.000618099 7.63922C0.0110714 8.12335 0.153912 8.59656 0.415101 9.01235C0.67629 9.42813 1.04684 9.77217 1.49032 10.0107C1.9338 10.2491 2.43496 10.3739 2.94453 10.3726ZM13.0131 11.9672C13.262 11.9672 13.5053 12.0374 13.7123 12.1688C13.9193 12.3002 14.0806 12.487 14.1759 12.7055C14.2711 12.924 14.296 13.1645 14.2475 13.3965C14.1989 13.6285 14.079 13.8416 13.903 14.0089C13.727 14.1761 13.5028 14.29 13.2586 14.3362C13.0145 14.3823 12.7614 14.3586 12.5315 14.2681C12.3015 14.1776 12.1049 14.0243 11.9666 13.8276C11.8283 13.631 11.7545 13.3997 11.7545 13.1632C11.7545 12.846 11.8871 12.5418 12.1231 12.3175C12.3592 12.0932 12.6793 11.9672 13.0131 11.9672ZM13.0131 1.60209C13.262 1.60209 13.5053 1.67224 13.7123 1.80365C13.9193 1.93507 14.0806 2.12185 14.1759 2.34039C14.2711 2.55893 14.296 2.7994 14.2475 3.03139C14.1989 3.26339 14.079 3.47649 13.903 3.64375C13.727 3.81101 13.5028 3.92492 13.2586 3.97106C13.0145 4.01721 12.7614 3.99353 12.5315 3.90301C12.3015 3.81249 12.1049 3.65919 11.9666 3.46252C11.8283 3.26584 11.7545 3.03461 11.7545 2.79807C11.7545 2.48088 11.8871 2.17668 12.1231 1.95239C12.3592 1.7281 12.6793 1.60209 13.0131 1.60209ZM2.94453 6.38599C3.19345 6.38599 3.43678 6.45614 3.64376 6.58755C3.85073 6.71897 4.01204 6.90575 4.1073 7.12429C4.20256 7.34282 4.22748 7.5833 4.17892 7.81529C4.13036 8.04729 4.01049 8.26039 3.83448 8.42765C3.65846 8.59491 3.43421 8.70882 3.19007 8.75496C2.94593 8.80111 2.69287 8.77743 2.4629 8.68691C2.23292 8.59639 2.03636 8.44309 1.89807 8.24642C1.75978 8.04974 1.68596 7.81851 1.68596 7.58197C1.68596 7.26478 1.81856 6.96058 2.05459 6.73629C2.29062 6.512 2.61074 6.38599 2.94453 6.38599Z" fill="black"/>
</svg>
